<svg xmlns="http://www.w3.org/2000/svg" viewBox="0 0 310 310">
<path d="M310,0H0v310h310V0z" fill="#532A45"></path>
<path d="M187.5,105.3l3.6-17.6c-0.9-0.2-1.5-0.5-2.1-1.2c-1.5,1.7-5,4.8-7.9,4.8c-0.2,0-0.2,0-0.3,0
	c-0.9,0-1.7-0.3-2.4-0.9c0.7-0.9,0.7-2.2,0-2.9l-0.2-0.2c0,0,0,0,0,0.2c0,0.3-0.2,0.9-0.5,1c-0.2,0-0.2,0.2-0.3,0.2
	c-0.3,0-0.7-0.2-0.9-0.5c-0.2-0.3-0.3-0.7-0.3-1c0-0.3,0-0.5,0-0.7l0.7,0.2h0.2c0.3,0,0.7-0.3,0.7-0.7c0-0.5-0.2-0.9-0.5-1l-0.7-0.2
	c0-0.2,0.2-0.5,0.3-0.9c0.3-0.5,0.9-1,1.4-1c0,0,0,0,0.2,0c0.3,0,0.7,0.2,1,0.5c0.2,0.3,0.3,0.7,0.3,1.2c0,0.2,0,0.3-0.2,0.5
	c0,0,0.2,0.2,0.5,0.2c0.3,0,0.9-0.2,1.2-0.3c0.5-0.3,0.9-0.9,1-1.4c0-0.2,0.2-0.3,0.2-0.5c0.3-1.4-0.2-2.9-1-3.8
	c-0.5-0.5-1-0.7-1.7-0.7c-0.7,0-1.2,0.3-1.9,0.7c-0.9,0.7-1.4,1.7-1.7,2.7v0.2c-0.2,0.5-0.3,1-0.5,1.5c0,0.3-0.2,0.7-0.2,0.9h-0.3
	c0-0.3,0-0.5,0.2-0.9c0.2-0.5,0.3-1,0.5-1.5c0.5-1.2,1-2.4,1.5-3.4c0.3-0.7,0.7-1.5,0.7-2.4c0.2-0.9,0-1.5-0.3-2.2
	c-0.3-1-1.9-5.3-1.9-5.3s-2.6,3.2-2.9,4.1c-0.3,0.7-0.7,1.2-0.9,2.1c-0.2,0.9,0,1.7,0.2,2.6c0.3,1.4,0.5,2.7,0.7,4.1
	c0,0.5,0.2,1.2,0,1.7c0,0.3,0,0.5,0,0.9h-0.3c0-0.3,0-0.5,0-0.9c0-0.5,0-1.2-0.2-1.7v-0.2c-0.2-1.2-0.3-2.4-1-3.4
	c-0.3-0.7-0.9-1.2-1.5-1.5c-0.3-0.2-0.7-0.2-1-0.2c-0.3,0-0.5,0-0.9,0.2c-1,0.3-1.9,1.7-1.9,3.1c0,0.2,0,0.3,0,0.5
	c0,0.7,0.3,1.4,0.7,1.9c0.3,0.5,1,1,1.4,1c0,0,0,0,0.2,0c0-0.2,0-0.3,0-0.5c0-0.5,0.3-0.7,0.5-1c0.2-0.2,0.3-0.2,0.5-0.2
	c0.2,0,0.3,0,0.5,0.2c0.7,0.3,1,1,1.2,1.7c0.2,0.3,0.2,0.7,0.2,0.9l-0.7-0.2h-0.2c-0.3,0-0.5,0.3-0.7,0.7c0,0.5,0.2,0.9,0.5,1
	l0.7,0.2c0,0.2-0.2,0.3-0.2,0.7c-0.2,0.3-0.3,0.7-0.5,0.9c-0.2,0.2-0.3,0.2-0.5,0.2c-0.3,0-0.5-0.2-0.7-0.3
	c-0.3-0.3-0.3-0.7-0.2-1.2c0,0,0,0,0-0.2h-0.2c-0.9,0.3-1.2,1.4-0.5,2.6c-0.7,0.2-1.4,0.3-2.2,0.3c-0.3,0-0.9,0-1.2,0
	c-4.4-0.5-7-4.6-7.9-6.8c-0.2,0.2-0.5,0.2-0.7,0.2s-0.5,0-0.9,0c-0.5,0-1-0.2-1.5-0.3c-0.9,2.2-3.4,6.3-7.9,6.8c-0.3,0-0.9,0-1.2,0
	c-0.9,0-1.5-0.2-2.2-0.3c0.9-1.2,0.3-2.2-0.5-2.6h-0.2c0,0,0,0,0,0.2c0,0.3,0,0.9-0.2,1.2c-0.2,0.2-0.5,0.3-0.7,0.3s-0.3,0-0.5-0.2
	c-0.2-0.2-0.5-0.5-0.5-0.9c-0.2-0.3-0.2-0.5-0.2-0.7l0.7-0.2c0.3-0.2,0.7-0.5,0.5-1c0-0.3-0.3-0.7-0.7-0.7h-0.2l-0.7,0.2
	c0-0.2,0-0.5,0.2-0.9c0.2-0.7,0.5-1.5,1.2-1.7c0.2,0,0.3-0.2,0.5-0.2c0.2,0,0.3,0,0.5,0.2c0.3,0.2,0.5,0.5,0.5,1c0,0.2,0,0.3,0,0.5
	c0.3,0,1.2-0.7,1.4-1c0.2-0.3,0.7-1.2,0.7-1.9c0-0.2,0-0.3,0-0.5c0-1.5-0.9-2.7-1.9-3.1c-0.3-0.2-0.5-0.2-0.9-0.2
	c-0.3,0-0.7,0-1,0.2c-0.7,0.3-1.2,0.9-1.5,1.5c-0.7,1-0.9,2.2-1,3.4v0.2c0,0.5-0.2,1.2,0,1.7c0,0.3,0,0.7,0,0.9h-0.3
	c0-0.3,0-0.5,0-0.9c0-0.5,0-1.2,0-1.7c0.2-1.4,0.5-2.7,0.7-4.1c0.2-0.9,0.2-1.7,0.2-2.6c-0.2-0.9-0.3-1.4-0.9-2.1
	c-0.5-0.9-2.9-4.1-2.9-4.1S133.3,73,133,74c-0.2,0.7-0.3,1.5-0.3,2.2c0.2,0.9,0.3,1.7,0.7,2.4c0.5,1.2,1.2,2.2,1.5,3.4
	c0.2,0.5,0.3,1,0.5,1.5c0,0.3,0.2,0.5,0.2,0.9h-0.3c0-0.2-0.2-0.5-0.2-0.9c-0.2-0.5-0.3-1-0.5-1.5v-0.2c-0.5-1-1-2.1-1.7-2.7
	c-0.5-0.5-1.2-0.7-1.9-0.7c-0.7,0-1.2,0.3-1.7,0.7c-1,0.9-1.4,2.4-1,3.8c0,0.2,0.2,0.3,0.2,0.5c0.2,0.5,0.7,1,1,1.4
	c0.3,0.2,0.9,0.3,1.2,0.3c0.2,0,0.3,0,0.5-0.2c0-0.2-0.2-0.3-0.2-0.5c0-0.5,0-0.9,0.3-1.2c0.2-0.3,0.5-0.5,1-0.5c0,0,0,0,0.2,0
	c0.7,0,1.2,0.5,1.4,1c0.2,0.3,0.3,0.7,0.3,0.9l-0.7,0.2c-0.3,0.2-0.7,0.5-0.5,1c0,0.3,0.3,0.7,0.7,0.7c0,0,0,0,0.2,0l0.7-0.2
	c0,0.2,0,0.3,0,0.7c0,0.3-0.2,0.9-0.3,1c-0.2,0.3-0.5,0.5-0.9,0.5c-0.2,0-0.2,0-0.3-0.2c-0.3-0.2-0.5-0.7-0.5-1c0,0,0,0,0-0.2
	c-0.2,0-0.2,0-0.2,0.2c-0.7,0.7-0.7,2.1,0,2.9c-0.7,0.5-1.5,0.7-2.4,0.9c-0.2,0-0.2,0-0.3,0c-2.9,0-6.3-3.1-7.9-4.8
	c-0.5,0.5-1.2,1-2.1,1.2l3.6,17.6c10.3-4.1,21.2-6.2,32.5-6.2C166.3,99.1,177.2,101.2,187.5,105.3z M155.2,101.3
	c-11.1,0-21.7,2.1-32,6.2c-0.2,0-0.3,0.2-0.5,0.2c-0.2,0-0.3,0.2-0.5,0.2c-1.5,0.9-2.2,2.7-1.5,4.4c0.5,1.4,1.9,2.2,3.2,2.2
	c0.5,0,0.9,0,1.4-0.3c9.6-3.9,19.5-5.8,29.9-5.8c10.3,0,20.3,2.1,29.9,5.8c0.5,0.2,0.9,0.3,1.4,0.3c1.4,0,2.7-0.9,3.2-2.2
	c0.7-1.7,0-3.4-1.5-4.4c-0.2,0-0.3-0.2-0.5-0.2c-0.2,0-0.3-0.2-0.5-0.2C176.9,103.4,166.1,101.3,155.2,101.3z M84.6,157.6
	c3.9-9.1,9.4-17.3,16.4-24.3c7-7,15.2-12.5,24.3-16.4c9.4-3.9,19.5-6,29.7-6c10.3,0,20.3,2,29.7,6c9.1,3.9,17.3,9.4,24.3,16.4
	c7,7,12.5,15.2,16.4,24.3c3.9,9.4,6,19.5,6,29.7c0,10.3-2.1,20.3-6,29.7c-3.9,9.1-9.4,17.3-16.4,24.3c-7,7-15.2,12.5-24.3,16.4
	c-9.4,3.9-19.5,6-29.7,6c-10.3,0-20.3-2.1-29.7-6c-9.1-3.9-17.3-9.4-24.3-16.4c-7-7-12.5-15.2-16.4-24.3c-3.9-9.4-6-19.5-6-29.7
	C78.6,176.9,80.7,167,84.6,157.6z M155,113c-35,0-64.3,24.1-72.1,56.7c0,0.2-0.2,0.5-0.2,0.7v0.2c0,0.2,0,0.3-0.2,0.5
	c-1.2,5.1-1.7,10.6-1.7,16.1c0,41,33.2,74.2,74.2,74.2s74.2-33.2,74.2-74.2C229.2,146.3,196,113,155,113z M151.2,275.3
	c0,5,3.8,9.1,3.8,9.1s3.8-4.1,3.8-9.1c0-5-3.8-9.1-3.8-9.1S151.2,270.4,151.2,275.3z M142.4,267.1c-4.4,2.4-6.2,7.7-6.2,7.7
	s5.5,1.4,9.7-1c4.4-2.4,6.2-7.7,6.2-7.7S146.8,264.7,142.4,267.1z M140.6,264.9c0,0-5.1-2.2-9.9-0.3c-4.8,1.7-7.2,6.7-7.2,6.7
	s5.1,2.2,9.9,0.3C138.3,269.8,140.6,264.9,140.6,264.9z M129.5,262c0,0-4.8-2.9-9.7-1.9c-5,1-8.2,5.6-8.2,5.6s4.8,2.9,9.7,1.9
	C126.5,266.6,129.5,262,129.5,262z M118.9,257.5c0,0-4.3-3.6-9.4-3.2c-5,0.3-8.9,4.3-8.9,4.3s4.3,3.6,9.4,3.2
	C115.2,261.5,118.9,257.5,118.9,257.5z M100.5,246.9c-5-0.3-9.4,3.1-9.4,3.1s3.8,4.1,8.7,4.4c5,0.3,9.4-3.1,9.4-3.1
	S105.4,247.5,100.5,246.9z M100.3,244.2c0,0-3.1-4.6-8-5.8c-5-1.2-9.7,1.7-9.7,1.7s3.1,4.6,8,5.8
	C95.5,246.9,100.3,244.2,100.3,244.2z M92.6,235.7c0,0-2.4-5-7-6.8c-4.6-1.9-9.9,0.2-9.9,0.2s2.4,5,7,6.8
	C87.5,237.7,92.6,235.7,92.6,235.7z M86.3,226.1c0,0-1.7-5.3-6-7.9c-4.4-2.6-9.7-1.2-9.7-1.2s1.7,5.3,6,7.9
	C80.8,227.5,86.3,226.1,86.3,226.1z M71.9,213.1c3.9,3.1,9.6,2.6,9.6,2.6s-0.9-5.5-4.8-8.5c-3.9-3.1-9.6-2.6-9.6-2.6
	S67.8,210,71.9,213.1z M78.1,204.7c0,0,0-5.6-3.6-9.2c-3.4-3.6-9.1-3.9-9.1-3.9s0,5.6,3.6,9.2C72.5,204.4,78.1,204.7,78.1,204.7z
	 M76.2,193.5c0,0,0.7-5.5-2.2-9.6c-2.9-4.1-8.4-5.3-8.4-5.3s-0.7,5.5,2.2,9.6C70.9,192.3,76.2,193.5,76.2,193.5z M76.2,182
	c0,0,1.5-5.3-0.7-9.9c-2.2-4.4-7.5-6.3-7.5-6.3s-1.5,5.3,0.7,9.9C70.9,179.9,76.2,182,76.2,182z M77.8,170.6c0,0,2.2-5.1,0.7-9.9
	c-1.5-4.8-6.5-7.3-6.5-7.3s-2.2,5.1-0.7,9.9C73,167.8,77.8,170.6,77.8,170.6z M81,159.6c0,0,3.1-4.6,2.1-9.6c-0.9-5-5.3-8.2-5.3-8.2
	s-3.1,4.6-2.1,9.6C76.6,156.2,81,159.6,81,159.6z M85.8,149c0,0,3.6-4.3,3.4-9.2s-4.1-8.9-4.1-8.9s-3.6,4.3-3.4,9.2
	C81.9,145.1,85.8,149,85.8,149z M96.9,130.9c0.5-5-2.7-9.4-2.7-9.4s-4.3,3.6-4.8,8.5c-0.5,5,2.7,9.4,2.7,9.4S96.4,135.9,96.9,130.9z
	 M105.8,123c1.4-4.8-1.4-9.7-1.4-9.7s-4.8,2.9-6,7.9c-1.4,4.8,1.4,9.7,1.4,9.7S104.4,127.8,105.8,123z M115.5,116.5
	c2.1-4.6,0.2-9.9,0.2-9.9s-5.1,2.2-7,6.8c-2.1,4.6-0.2,9.9-0.2,9.9S113.6,121.2,115.5,116.5z M167.6,267.1c-4.4-2.4-9.7-1-9.7-1
	s1.7,5.3,6.2,7.7c4.4,2.4,9.7,1,9.7,1S172.1,269.7,167.6,267.1z M179.1,264.5c-4.8-1.7-9.9,0.3-9.9,0.3s2.6,5,7.2,6.7
	c4.8,1.7,9.9-0.3,9.9-0.3S183.9,266.3,179.1,264.5z M190.2,260.1c-5-1-9.7,1.9-9.7,1.9s3.2,4.6,8,5.6c5,1,9.7-1.9,9.7-1.9
	S195,261.3,190.2,260.1z M200.3,254.3c-5-0.3-9.4,3.2-9.4,3.2s3.8,4.1,8.9,4.3c5,0.3,9.4-3.2,9.4-3.2S205.4,254.6,200.3,254.3z
	 M209.5,246.9c-5,0.3-8.7,4.6-8.7,4.6s4.4,3.4,9.4,3.1c5-0.3,8.7-4.4,8.7-4.4S214.6,246.6,209.5,246.9z M217.7,238.4
	c-5,1.2-8,5.8-8,5.8s4.8,2.7,9.7,1.7c5-1.2,8-5.8,8-5.8S222.5,237.4,217.7,238.4z M224.4,228.8c-4.6,1.9-7,6.8-7,6.8
	s5.1,2.1,9.9,0.2c4.6-1.9,7-6.8,7-6.8S229.2,226.9,224.4,228.8z M229.7,218.4c-4.4,2.6-6,7.9-6,7.9s5.5,1.2,9.7-1.2
	c4.4-2.6,6-7.9,6-7.9S234.1,215.8,229.7,218.4z M233.4,207.1c-3.9,3.1-4.8,8.5-4.8,8.5s5.5,0.5,9.6-2.6c3.9-3.1,4.8-8.5,4.8-8.5
	S237.4,204,233.4,207.1z M235.5,195.5c-3.4,3.6-3.6,9.2-3.6,9.2s5.5-0.3,9.1-3.9c3.4-3.6,3.6-9.2,3.6-9.2S239.1,191.9,235.5,195.5z
	 M235.8,183.7c-2.9,4.1-2.2,9.6-2.2,9.6s5.5-1.2,8.4-5.3c2.9-4.1,2.2-9.6,2.2-9.6S238.7,179.6,235.8,183.7z M234.5,172.1
	c-2.2,4.4-0.7,9.9-0.7,9.9s5.3-1.9,7.5-6.3c2.2-4.4,0.7-9.9,0.7-9.9S236.9,167.6,234.5,172.1z M232.2,170.6c0,0,5-2.7,6.5-7.3
	c1.5-4.8-0.7-9.9-0.7-9.9s-5,2.7-6.5,7.3C229.9,165.4,232.2,170.6,232.2,170.6z M229,159.6c0,0,4.4-3.4,5.3-8.2
	c0.9-5-2.1-9.6-2.1-9.6s-4.4,3.4-5.3,8.2C225.9,154.8,229,159.6,229,159.6z M224.2,149c0,0,3.9-3.9,4.1-8.9c0.2-5-3.4-9.2-3.4-9.2
	s-3.9,3.9-4.1,8.9C220.5,144.9,224.2,149,224.2,149z M217.9,139.4c0,0,3.2-4.4,2.7-9.4c-0.5-5-4.8-8.5-4.8-8.5s-3.2,4.4-2.7,9.4
	C213.6,135.9,217.9,139.4,217.9,139.4z M210.4,130.9c0,0,2.6-5,1.4-9.7c-1.4-4.8-6-7.9-6-7.9s-2.6,5-1.4,9.7
	C205.6,127.8,210.4,130.9,210.4,130.9z M194.3,106.6c0,0-1.9,5.3,0.2,9.9c2.1,4.6,7,6.8,7,6.8s1.9-5.3-0.2-9.9
	C199.4,109,194.3,106.6,194.3,106.6z M189.7,213.4c0.9,2.2,2.4,4.4,2.9,8.7c0.5,4.3-0.5,7.5-0.5,7.5s-2.4-1.7-5.8-3.2
	c0,0-0.2,0-0.2-0.2h-0.2h-0.2h-0.2h-0.2h-0.2c0,0.2-0.2,1-0.5,2.1c-0.2,0.9-0.5,1.7-0.7,2.7c-0.3,1.2-0.7,2.4-1.2,3.6c0,0,0,0,0,0.2
	c-0.3,1-0.9,2.1-1.4,2.9c-0.2,0.3-0.3,0.7-0.5,0.9c-0.3,0.5-0.5,0.9-0.9,1.4c-0.2,0.2-0.2,0.3-0.3,0.5c-0.3,0.3-0.5,0.7-0.9,0.9
	c-0.2,0.2-0.3,0.3-0.5,0.5c-1.4,1.2-3.8,3.1-6.5,5.1c-3.2,2.2-7,4.6-9.9,6.8c-4.1,3.1-6.2,5.3-6.2,5.3s-2.1-2.4-6.2-5.3
	c-2.9-2.2-6.7-4.6-9.9-6.8c-2.9-2.1-5.1-3.9-6.5-5.1c-0.3-0.3-0.9-0.7-1.2-1.2l-0.2-0.2c-4.1-5-5.6-13.5-5.8-14.4h-0.2h-0.2h-0.2
	h-0.2c0,0-0.2,0-0.2,0.2c0,0-0.2,0-0.2,0.2c-3.6,1.5-5.8,3.2-5.8,3.2s-1-3.2-0.5-7.5c0.5-4.3,2-6.5,2.9-8.7c0.9-2.2,1.7-4.6,1.7-4.6
	s3.6,2.4,5.3,3.4c1.7,1,4.6,2.9,6.7,5.3c2.1,2.4,3.8,6.2,3.8,6.2s-0.7,0-1.9,0c-1,0-2.6,0-4.3,0.3h-0.2c-0.2,0-0.5,0.2-0.9,0.2h-0.2
	h-0.2c0,0,0.5,5.8,5.6,11.3c0.3,0.3,0.7,0.7,1,1c1.2,1,2.7,2.2,3.8,2.9c0.9,0.7,1.9,1.2,2.7,1.5c0.3,0,0.7,0,1,0
	c4.1,0,7.5-3.1,7.5-6.7v-24.6c1,0,2.1,0.2,3.2,0.2c1,0,2.2,0,3.2-0.2v24.6c0,3.8,3.4,6.7,7.5,6.7c0.3,0,0.7,0,1,0
	c1-0.5,1.9-1,2.7-1.5c1.4-1,3.8-2.7,4.8-3.9c5-5.6,5.6-11.3,5.6-11.3h-0.2h-0.2c-0.3,0-0.5-0.2-0.9-0.2c-0.2,0-0.2,0-0.2,0
	c-1.7-0.3-3.1-0.3-4.3-0.3s-1.9,0-1.9,0s1.7-3.8,3.8-6.2c2.1-2.4,5-4.1,6.7-5.3c1.7-1,5.3-3.4,5.3-3.4S188.8,211.2,189.7,213.4z
	 M125.3,225.8C125.3,225.8,125.4,225.8,125.3,225.8C125.4,225.8,125.4,225.8,125.3,225.8z M125.6,225.8
	C125.6,225.8,125.6,225.6,125.6,225.8C125.6,225.6,125.6,225.6,125.6,225.8z M184.4,225.6h0.2C184.6,225.8,184.6,225.8,184.4,225.6
	C184.4,225.8,184.6,225.8,184.4,225.6z M184.6,225.8C184.7,225.8,184.7,225.8,184.6,225.8C184.7,225.8,184.7,225.8,184.6,225.8
	C184.7,225.8,184.7,225.8,184.6,225.8C184.6,225.8,184.7,225.8,184.6,225.8z M143,148.7l-23.4-3.6v-5.5h32.3v-1.7
	c-4.4-1.4-7.7-5.5-7.7-10.4c0-6,4.8-10.8,10.8-10.8s10.8,4.8,10.8,10.8c0,4.8-3.2,9.1-7.7,10.4v1.7h32.3v5.5l-23.4,3.6h-8.7v13.8
	c-1,0.5-2.1,1-3.2,1.7c-1-0.5-2.2-1-3.2-1.7v-13.8H143z M150.4,132.3c0.5,0.5,0.9,0.9,1.4,1c0-1.7,1.4-3.2,3.2-3.2
	c1.7,0,3.2,1.4,3.2,3.2c0.5-0.3,1-0.7,1.4-1c1.2-1.2,1.9-2.9,1.9-4.6s-0.7-3.4-1.9-4.6s-2.9-1.9-4.6-1.9s-3.4,0.7-4.6,1.9
	s-1.9,2.9-1.9,4.6S149.2,130.9,150.4,132.3z M157.4,165.6c0.3,0.2,0.5,0.3,0.9,0.3c2.6,1.4,5.1,2.7,7.9,3.9c2.2-1,4.6-2.2,7.3-3.2
	c11.8-6.5,21-11.6,21.9-12.1c2.2-1.2,5.5-3.4,7.5-5.1c1-0.9,2.4-2.1,3.4-3.1c1-1.2,1.9-2.1,1.9-2.2l1.2-1.4l-1.9,0.2
	c0,0-1.4,0.2-2.9,0.3c-1.5,0.2-3.2,0.7-4.4,1c-2.6,0.9-6.2,2.2-8.4,3.4c-1,0.5-16.2,8.4-33.5,17.3
	C157.9,165.3,157.7,165.4,157.4,165.6z M120.5,205.8c0.5,0,1.2-0.2,1.7-0.3c0.9-0.5,1.5-1.2,1.7-2.1c0.3-0.9,0.2-1.9-0.3-2.7
	c-0.7-1.2-1.9-1.9-3.2-1.9c-0.3,0-0.7,0-0.9,0.2l-0.7-1.4l-0.2-0.3c1.9-1,7.5-4.1,14.9-8.2c-2.4-0.3-4.8-0.9-7-1.5
	c-2.2-0.7-4.1-1.7-6-2.6l-5.8,3.1c-0.3,0.2-0.5,0.3-0.7,0.3l-0.9-1.7c0.5-0.5,0.9-1,1-1.7c0.3-0.9,0.2-1.9-0.3-2.7
	c-0.7-1.2-1.9-1.9-3.2-1.9c-0.5,0-1.2,0.2-1.7,0.3c-0.9,0.5-1.5,1.2-1.7,2.1c-0.3,0.9-0.2,1.9,0.3,2.7l2.7,5.1c-0.2,0-0.3,0-0.3,0
	c-0.3,0-0.7,0.2-1,0.3c-0.3,0.2-0.7,0.3-0.9,0.7c0,0.2-0.2,0.2-0.2,0.3c-0.2,0-0.3,0-0.3,0c-0.3,0-0.7,0.2-1,0.3
	c-0.3,0.2-0.7,0.3-0.9,0.7c0,0.2-0.2,0.2-0.2,0.3c-0.2,0-0.3,0-0.3,0c-0.3,0-0.7,0.2-1,0.3c-0.3,0.2-0.7,0.3-0.9,0.7
	c0,0.2-0.2,0.2-0.2,0.3c-0.2,0-0.3,0-0.3,0c-0.3,0-0.7,0.2-1,0.3c-0.3,0.2-0.7,0.3-0.9,0.7c0,0-0.2,0.2-0.2,0.3c-0.2,0-0.3,0-0.5,0
	c-0.3,0-0.7,0.2-1,0.3c-0.3,0.2-0.7,0.3-0.9,0.7l-0.2,0.2c-0.2,0-0.3,0-0.5,0c-0.3,0-0.7,0.2-1,0.3c-0.3,0.2-0.5,0.3-0.9,0.7
	l-0.2,0.2c-0.2,0-0.3,0-0.5,0c-0.3,0-0.7,0.2-1,0.3c-0.3,0.2-0.5,0.3-0.9,0.7l-0.2,0.2c-0.2,0-0.3,0-0.5,0c-0.3,0.2-0.7,0.2-0.9,0.3
	c-0.2,0.2-0.5,0.3-0.7,0.5c-0.2,0-0.2,0-0.3,0h-0.2c-1.4,0-2.4,0.7-3.4,1.5c-0.9,1-1.4,2.2-1.2,3.4C86,208,88,210,90.6,210
	c0.2,0,0.2,0,0.3,0c1.5,0,2.9-0.9,3.8-2.2c0.3-0.2,0.5-0.5,0.7-0.7h0.2c0.2,0,0.2,0,0.3,0s0.5-0.2,0.7-0.2c0.2,0,0.3-0.2,0.5-0.3
	c0.3-0.2,0.5-0.5,0.7-0.7h0.2c0.2,0,0.3,0,0.3,0c0.2,0,0.5-0.2,0.7-0.2c0.2,0,0.3-0.2,0.5-0.3c0.3-0.2,0.5-0.5,0.7-0.7h0.2
	c0.2,0,0.2,0,0.3,0c0.2,0,0.5-0.2,0.7-0.2c0.2,0,0.3-0.2,0.5-0.3c0.3-0.2,0.5-0.5,0.7-0.7h0.2c0.2,0,0.2,0,0.3,0
	c0.2,0,0.5-0.2,0.7-0.2c0.2,0,0.3-0.2,0.5-0.2c0.3-0.2,0.5-0.5,0.7-0.7h0.2c0.2,0,0.2,0,0.3,0c0.2,0,0.5-0.2,0.7-0.2
	s0.3-0.2,0.5-0.3c0.3-0.2,0.5-0.5,0.7-0.7h0.2c0.2,0,0.2,0,0.3,0s0.5-0.2,0.7-0.2c0.2,0,0.3-0.2,0.5-0.2c0.3-0.2,0.5-0.5,0.7-0.7
	h0.2c0.2,0,0.2,0,0.3,0c0.2,0,0.5-0.2,0.7-0.2c0.2,0,0.3-0.2,0.5-0.2c0.3-0.2,0.5-0.5,0.7-0.7h0.2c0.2,0,0.2,0,0.3,0
	c0.2,0,0.5-0.2,0.9-0.2c0.2,0,0.2,0,0.3-0.2l1.2,2.4l1.4,2.6C117.9,205.1,119.1,205.8,120.5,205.8z M103.7,146.5
	c1,1,2.4,2.4,3.4,3.1c2.1,1.7,5.3,3.8,7.5,5.1c0.7,0.3,8.4,4.6,18.5,10.3c5,1,9.4,2.2,13,4.1c0.3,0.2,0.9,0.3,1.2,0.7
	c0.3,0.2,0.9,0.5,1.2,0.7c1.4,0.7,2.4,1.5,3.2,2.2c1,0.9,1.7,1.5,2.2,2.1c0.5-0.2,1.2-0.2,1.9-0.2c0.9,0,1.7,0.2,2.4,0.3
	c1-0.7,2.9-1.9,5.3-3.2c-1.7-0.9-3.6-1.9-5.3-2.7c-1-0.5-2.2-1-3.2-1.7c-0.3-0.2-0.9-0.3-1.2-0.7c-0.3-0.2-0.9-0.3-1.2-0.7
	c-0.3-0.2-0.5-0.3-0.9-0.3c-17.1-8.9-32.3-16.6-33.5-17.3c-2.2-1.2-6-2.7-8.4-3.4c-1.2-0.3-3.1-0.9-4.4-1c-1.5-0.3-2.7-0.3-2.9-0.3
	l-1.9-0.2l1.2,1.4C101.9,144.4,102.7,145.3,103.7,146.5z M219.4,201.1h-0.2c-0.2,0-0.2,0-0.3,0c-0.2-0.2-0.5-0.3-0.7-0.5
	c-0.2-0.2-0.5-0.3-0.9-0.3c-0.2,0-0.3,0-0.5,0c0-0.2-0.2-0.2-0.2-0.2c-0.2-0.3-0.5-0.5-0.9-0.7c-0.3-0.2-0.7-0.3-1-0.3
	c-0.2,0-0.3,0-0.5,0l-0.2-0.2c-0.2-0.3-0.5-0.5-0.9-0.7c-0.3-0.2-0.7-0.3-1-0.3c-0.2,0-0.3,0-0.5,0c0-0.2-0.2-0.2-0.2-0.2
	c-0.2-0.3-0.5-0.5-0.9-0.7c-0.3-0.2-0.7-0.3-1-0.3c-0.2,0-0.3,0-0.5,0c0-0.2-0.2-0.2-0.2-0.3c-0.2-0.3-0.5-0.5-0.9-0.7
	c-0.3-0.2-0.7-0.3-1-0.3c-0.2,0-0.3,0-0.3,0c0-0.2-0.2-0.2-0.2-0.3c-0.2-0.3-0.5-0.5-0.9-0.7c-0.3-0.2-0.7-0.3-1-0.3
	c-0.2,0-0.3,0-0.3,0c0-0.2-0.2-0.2-0.2-0.3c-0.2-0.3-0.5-0.5-0.9-0.7c-0.3-0.2-0.7-0.3-1-0.3c-0.2,0-0.3,0-0.3,0
	c0-0.2-0.2-0.2-0.2-0.3c-0.2-0.3-0.5-0.5-0.9-0.7c-0.3-0.2-0.7-0.3-1-0.3c-0.2,0-0.3,0-0.3,0l2.7-5.1c0.5-0.9,0.5-1.9,0.2-2.7
	c-0.3-0.9-0.9-1.7-1.7-2.1c-0.5-0.3-1-0.3-1.7-0.3c-1.4,0-2.6,0.7-3.2,1.9c-0.5,0.9-0.5,1.9-0.3,2.7c0.2,0.7,0.5,1.2,1,1.7l-0.9,1.7
	c-0.2-0.2-0.5-0.2-0.7-0.3l-7.9-3.9c-1.7,1.2-3.8,2.4-6.8,3.2c0,0.2,0.2,0.5,0.2,0.9c0,0.9-0.2,1.9-1.2,2.9
	c5.8,3.1,9.9,5.5,11.6,6.5l-0.3,0.5l-0.7,1.2c-0.3,0-0.7-0.2-0.9-0.2c-1.4,0-2.6,0.7-3.2,1.9c-0.5,0.9-0.5,1.9-0.3,2.7
	c0.3,0.9,0.9,1.7,1.7,2.1c0.5,0.3,1.2,0.3,1.7,0.3c1.4,0,2.6-0.7,3.2-1.9l1.4-2.6l1.2-2.4c0,0,0.2,0.2,0.3,0.2
	c0.3,0.2,0.5,0.2,0.7,0.2c0.2,0,0.2,0,0.3,0h0.2c0.2,0.3,0.5,0.5,0.7,0.7c0.2,0.2,0.3,0.2,0.5,0.2c0.3,0.2,0.5,0.2,0.7,0.2
	c0.2,0,0.2,0,0.3,0h0.2c0.2,0.3,0.5,0.5,0.7,0.7c0.2,0.2,0.3,0.2,0.5,0.2c0.3,0.2,0.5,0.2,0.7,0.2c0.2,0,0.2,0,0.3,0h0.2
	c0.2,0.3,0.5,0.5,0.7,0.7c0.2,0.2,0.3,0.2,0.5,0.3c0.3,0.2,0.5,0.2,0.7,0.2c0.2,0,0.2,0,0.3,0h0.2c0.2,0.3,0.5,0.5,0.7,0.7
	c0.2,0.2,0.3,0.2,0.5,0.2c0.2,0.2,0.5,0.2,0.7,0.2c0.2,0,0.2,0,0.3,0h0.2c0.2,0.3,0.5,0.5,0.7,0.7c0.2,0.2,0.3,0.2,0.5,0.3
	c0.2,0.2,0.5,0.2,0.7,0.2c0.2,0,0.2,0,0.3,0h0.2c0.2,0.3,0.5,0.5,0.7,0.7c0.2,0.2,0.3,0.2,0.5,0.3c0.2,0.2,0.5,0.2,0.7,0.2
	s0.3,0,0.3,0h0.2c0.2,0.3,0.5,0.5,0.7,0.7c0.2,0.2,0.3,0.2,0.5,0.3c0.2,0.2,0.5,0.2,0.7,0.2s0.3,0,0.3,0h0.2
	c0.2,0.3,0.5,0.5,0.7,0.7c0.9,1.4,2.2,2.2,3.8,2.2c0,0,0.2,0,0.3,0c2.6,0,4.6-2.1,4.8-4.6c0-1.4-0.3-2.6-1.2-3.4
	C222,201.8,220.8,201.3,219.4,201.1z M120.5,182c0.3,0.2,0.9,0.5,1.2,0.7c0.3,0.2,0.9,0.3,1.2,0.7c1.4,0.7,2.7,1.2,4.3,1.7
	c3.6,1.2,7.2,1.5,9.9,1.7c0.3,0,0.7,0,0.9,0c0.5,0,1,0,1.4,0c1,0,2.1-0.2,2.6-0.2c0.9-0.2,1.4-0.2,1.4-0.2l1,5l-7.3,10.1
	c0,0,2.9,5.3,14.7,6.2c1,0,2.1,0.2,3.2,0.2s2.2,0,3.2-0.2c11.8-0.9,14.4-6.2,14.4-6.2l-9.4-8.2l1.7-4.4c-0.3,0-0.7-0.2-1-0.2
	c-1,0-1.9,0.2-2.4,0.3c-0.2,0-0.3,0-0.5,0h-0.2h-0.2l-0.7-0.2c0.2,0,0.3-0.2,0.7-0.3c0.3-0.2,0.7-0.5,1.2-0.7c1.2-0.5,2.4-1,3.4-0.9
	c0.2,0,0.5,0.2,0.7,0.2c0.7,0.2,1,0.3,1.5,0.7c0.7,0.3,1.4,0.5,2.4,0.7c0.2,0,0.2,0,0.3,0c0.7,0.2,1.2,0.2,1.4,0.2
	c0.7,0,0.7-0.2,2.2,0c0.2,0,0.3,0,0.7,0c2.9,0.2,2.9,1.5,2.9,1.5c0.3-0.2,0.5-0.3,0.7-0.5c0.9-0.9,1-1.5,0.9-2.4
	c-0.2-0.3-0.3-0.7-0.7-1c-0.3-0.3-0.7-0.7-1-1c-0.3-0.3-0.7-0.5-0.7-0.5c0.7-2.1-5.1-2.9-7.7-3.4c-1.5-0.3-5.1-1.9-7.7-3.1
	c-0.9-0.3-1.5-0.7-2.1-1h-0.2c-0.3-0.2-0.5-0.3-0.5-0.3c-0.2,0-0.3-0.2-0.5-0.2c-0.5-0.2-1.2-0.3-1.9-0.3c-0.5,0-0.9,0-1.4,0.2
	c-0.9,0.2-1.4,0.3-1.4,0.3s-0.3-0.7-1.4-1.7c-0.2-0.2-0.3-0.3-0.5-0.5c-1-1-2.7-2.2-5-3.4c-0.3-0.2-0.9-0.3-1.2-0.7
	c-0.3-0.2-0.9-0.3-1.4-0.5c-0.7-0.3-1.5-0.7-2.4-0.9c-1.5-0.5-3.1-1-5-1.5c-1.2-0.3-2.4-0.5-3.8-0.9c-2.9-0.5-6.2-1-9.9-1.2
	c-3.4-0.3-6.5-0.3-9.6-0.3c-19.3,0-29.1,5-29.1,5s9.6,1.4,19.7,4.1C111.8,176.4,116,179.4,120.5,182z M189.4,165.3
	c-5.3,0.3-10.4,1.7-15,3.4c-2.1,0.9-3.9,1.7-5.8,2.4c-0.3,0.2-0.9,0.3-1.2,0.7c-0.3,0.2-0.9,0.3-1.2,0.7c-3.2,1.7-5.6,3.2-6.8,3.9
	l0.5,0.2c0,0,0,0,0.2,0c1,0.3,7,2.2,9.2,2.7c0.3,0,0.7,0.2,1,0.2c3.8,0.9,6.8,1.5,7.9,3.4c0.2,0.2,0.2,0.3,0.2,0.7
	c0.3,0.3,0.9,0.7,1.2,1c2.6-0.5,4.3-1.4,5.8-2.4c0.3-0.2,0.7-0.5,1-0.7c0.3-0.2,0.7-0.5,1-0.7c2.1-1.7,4.1-3.4,7.9-5
	c11.6-4.6,30.6-6.8,30.6-6.8s-17.1-3.9-32.1-3.9C192.3,165.1,190.7,165.3,189.4,165.3z M158.8,32.6c0,0.7-0.2,1.4-0.5,1.9
	c1.5,0.7,2.7,1.5,3.9,2.6v-8.7c-1.2,0.9-2.4,1.9-3.9,2.6C158.6,31.4,158.8,32,158.8,32.6z M155.2,29.1c0.7,0,1.4,0.2,1.9,0.5
	c0.7-1.5,1.5-2.7,2.6-3.9h-8.7c0.9,1.2,1.9,2.4,2.6,3.9C153.8,29.2,154.5,29.1,155.2,29.1z M151.6,32.6c0-0.7,0.2-1.4,0.5-1.9
	c-1.5-0.7-2.7-1.5-3.9-2.6v8.7c1.2-0.9,2.4-1.9,3.9-2.6C151.8,34,151.6,33.3,151.6,32.6z M159.4,39.6c-0.9-1.2-1.9-2.4-2.6-3.9
	c-0.5,0.3-1.2,0.5-1.9,0.5c-0.7,0-1.4-0.2-1.9-0.5c-0.7,1.5-1.5,2.7-2.6,3.9H159.4z M153.6,34.9c0.5,0.3,1,0.5,1.5,0.5
	s1-0.2,1.5-0.5c0.3-0.2,0.5-0.5,0.7-0.7c0.3-0.5,0.5-1,0.5-1.5c0-0.5-0.2-1-0.5-1.5c-0.2-0.3-0.5-0.5-0.7-0.7
	c-0.5-0.3-1-0.5-1.5-0.5s-1,0.2-1.5,0.5c-0.3,0.2-0.5,0.5-0.7,0.7c-0.3,0.5-0.5,1-0.5,1.5c0,0.5,0.2,1,0.5,1.5
	C153.1,34.5,153.3,34.7,153.6,34.9z M153.6,56.7c0.5,0.3,1,0.5,1.5,0.5s1-0.2,1.5-0.5c0.3-0.2,0.5-0.5,0.7-0.7
	c0.3-0.5,0.5-1,0.5-1.5c0-0.5-0.2-1-0.5-1.5c-0.2-0.3-0.5-0.5-0.7-0.7c-0.5-0.3-1-0.5-1.5-0.5s-1,0.2-1.5,0.5
	c-0.3,0.2-0.5,0.5-0.7,0.7c-0.3,0.5-0.5,1-0.5,1.5c0,0.5,0.2,1,0.5,1.5C153.1,56.2,153.3,56.6,153.6,56.7z M153.6,62.4
	c0.5,0.3,1,0.5,1.5,0.5s1-0.2,1.5-0.5c0.3-0.2,0.5-0.5,0.7-0.7c0.3-0.5,0.5-1,0.5-1.5c0-0.5-0.2-1-0.5-1.5c-0.2-0.3-0.5-0.5-0.7-0.7
	c-0.5-0.3-1-0.5-1.5-0.5s-1,0.2-1.5,0.5c-0.3,0.2-0.5,0.5-0.7,0.7c-0.3,0.5-0.5,1-0.5,1.5c0,0.5,0.2,1,0.5,1.5
	C153.1,62,153.3,62.2,153.6,62.4z M153.6,68.2c0.5,0.3,1,0.5,1.5,0.5s1-0.2,1.5-0.5c0.3-0.2,0.5-0.5,0.7-0.7c0.3-0.5,0.5-1,0.5-1.5
	c0-0.5-0.2-1-0.5-1.5c-0.2-0.3-0.5-0.5-0.7-0.7c-0.5-0.3-1-0.5-1.5-0.5s-1,0.2-1.5,0.5c-0.3,0.2-0.5,0.5-0.7,0.7
	c-0.3,0.5-0.5,1-0.5,1.5c0,0.5,0.2,1,0.5,1.5C153.1,67.7,153.3,68,153.6,68.2z M116.9,86.3c0.5,0.3,1,0.5,1.5,0.5s1-0.2,1.5-0.5
	c0.3-0.2,0.5-0.5,0.7-0.7c0.3-0.5,0.5-1,0.5-1.5c0-0.5-0.2-1-0.5-1.5c-0.2-0.3-0.5-0.5-0.7-0.7c-0.5-0.3-1-0.5-1.5-0.5
	s-1,0.2-1.5,0.5c-0.3,0.2-0.5,0.5-0.7,0.7c-0.3,0.5-0.5,1-0.5,1.5c0,0.5,0.2,1,0.5,1.5C116.4,86,116.5,86.1,116.9,86.3z M153.6,80
	c0.5,0.3,1,0.5,1.5,0.5s1-0.2,1.5-0.5c0.3-0.2,0.5-0.5,0.7-0.7c0.3-0.5,0.5-1,0.5-1.5c0-0.5-0.2-1-0.5-1.5c-0.2-0.3-0.5-0.5-0.7-0.7
	c-0.5-0.3-1-0.5-1.5-0.5s-1,0.2-1.5,0.5c-0.3,0.2-0.5,0.5-0.7,0.7c-0.3,0.5-0.5,1-0.5,1.5c0,0.5,0.2,1,0.5,1.5
	C153.1,79.6,153.3,79.8,153.6,80z M155.2,51.4c3.2,0,5.8-2.6,5.8-5.8c0-3.2-2.6-5.8-5.8-5.8c-3.2,0-5.8,2.6-5.8,5.8
	C149.4,48.9,151.9,51.4,155.2,51.4z M119.6,73.3c-0.2-0.7-0.5-1.4-0.7-2.1c-2.4-6.2-3.9-12,1-16.4c2.2-1.9,5-3.1,8.2-3.1
	c2.1,0,4.8,0.7,7.3,1.5c5.3,1.9,9.1,2.9,15.7,2.9v-2.7c-6.2,0-9.6-1-14.9-2.7c-2.9-1-6-1.7-8.4-1.7c-3.2,0-7.2,1.4-9.7,3.8
	c-8,7-2.6,17.1-1.2,21.4L119.6,73.3z M146.3,83.2c1.4-1.2,4.1-2.7,5.6-3.4c-0.2-0.3-0.3-0.7-0.5-1.2c-0.2-1,0-1.9,0.5-2.7
	c-1.5-0.7-4.3-2.4-5.6-3.6V83.2z M164.1,83.2V72.3c-1.4,1.2-4.1,3.1-5.6,3.6c0.2,0.3,0.3,0.7,0.5,1.2c0.2,1,0,1.9-0.5,2.7
	C160,80.5,162.7,82,164.1,83.2z M153.3,74.7c0.3-0.2,0.7-0.3,1.2-0.5c0.2,0,0.5,0,0.9,0c0.7,0,1.4,0.2,1.9,0.5
	c0.7-1.5,2.4-4.3,3.6-5.6h-10.9C150.9,70.4,152.6,73.1,153.3,74.7z M117.7,80.5c0.2,0,0.5,0,0.7,0c0.5,0,0.9,0.2,1.4,0.2
	c0.5-1.9,2.1-5.6,3.1-7.3l-7,2.4L117.7,80.5z M127.5,87.7l-2.2-10.8c-0.5,1.5-2.7,3.8-3.9,4.6c0.5,0.5,0.7,1,0.9,1.7
	c0.2,0.7,0.2,1.4-0.2,1.9C123.6,85.6,126.3,86.8,127.5,87.7z M144.7,47.2c-0.5,0.3-0.9,0.7-1,1.2c-0.2,0.5-0.2,1-0.2,1.5
	c0,0.3,0.2,0.7,0.3,1c0.3,0.5,0.7,0.9,1.2,1c0.5,0.2,1,0.2,1.5,0.2c0.3,0,0.7-0.2,1-0.3c0.5-0.3,0.9-0.7,1-1.2s0.2-1,0.2-1.5
	c0-0.3-0.2-0.7-0.3-1c-0.3-0.5-0.7-0.9-1.2-1c-0.5-0.2-1-0.2-1.5-0.2S144.9,46.8,144.7,47.2z M139.4,45.3c-0.5,0.2-1,0.3-1.4,0.9
	c-0.3,0.3-0.7,0.9-0.7,1.4c0,0.3,0,0.7,0,1c0.2,0.5,0.3,1,0.9,1.4c0.3,0.3,0.9,0.7,1.4,0.7c0.3,0,0.7,0,1,0c0.5-0.2,1-0.3,1.4-0.9
	c0.3-0.3,0.7-0.9,0.7-1.4c0-0.3,0-0.7,0-1c-0.2-0.5-0.3-1-0.9-1.4c-0.3-0.3-0.9-0.7-1.4-0.7C140.1,45.1,139.8,45.1,139.4,45.3z
	 M133,42.9c-0.5,0.2-0.9,0.5-1.2,1c-0.3,0.5-0.5,1-0.5,1.5c0,0.3,0,0.7,0.2,1c0.2,0.5,0.5,0.9,1,1.2c0.5,0.3,1,0.5,1.5,0.5
	c0.3,0,0.7,0,1-0.2c0.5-0.2,0.9-0.5,1.2-1c0.3-0.5,0.5-1,0.5-1.5c0-0.3,0-0.7-0.2-1c-0.2-0.5-0.5-0.9-1-1.2c-0.5-0.3-1-0.5-1.5-0.5
	C133.6,42.7,133.3,42.9,133,42.9z M125.6,42.9c-0.3,0.3-0.7,0.9-0.9,1.4c-0.2,0.5-0.2,1,0,1.5c0.2,0.3,0.3,0.7,0.5,0.9
	c0.3,0.3,0.9,0.7,1.4,0.9c0.5,0.2,1,0.2,1.5,0c0.3-0.2,0.7-0.3,0.9-0.5c0.3-0.3,0.7-0.9,0.9-1.4c0.2-0.5,0.2-1,0-1.5
	c-0.2-0.3-0.3-0.7-0.5-0.9c-0.3-0.3-0.9-0.7-1.4-0.9c-0.5-0.2-1-0.2-1.5,0C126.3,42.4,125.9,42.6,125.6,42.9z M118.9,44.8
	c-0.3,0.5-0.5,1-0.5,1.5s0.2,1,0.5,1.5c0.2,0.3,0.5,0.5,0.7,0.7c0.5,0.3,1,0.5,1.5,0.5c0.5,0,1-0.2,1.5-0.5c0.3-0.2,0.5-0.5,0.7-0.7
	c0.3-0.5,0.5-1,0.5-1.5s-0.2-1-0.5-1.5c-0.2-0.3-0.5-0.5-0.7-0.7c-0.5-0.3-1-0.5-1.5-0.5c-0.5,0-1,0.2-1.5,0.5
	C119.5,44.3,119.1,44.4,118.9,44.8z M112.6,49.2c-0.2,0.5,0,1,0.2,1.5c0.2,0.5,0.5,0.9,1,1.2c0.3,0.2,0.7,0.3,1,0.3
	c0.5,0.2,1,0,1.5-0.2c0.5-0.2,0.9-0.5,1.2-1c0.2-0.3,0.3-0.7,0.3-1c0.2-0.5,0-1-0.2-1.5c-0.2-0.5-0.5-0.9-1-1.2
	c-0.3-0.2-0.7-0.3-1-0.3c-0.5-0.2-1,0-1.5,0.2c-0.5,0.2-0.9,0.5-1.2,1C112.8,48.5,112.6,48.9,112.6,49.2z M108.5,55.4
	c0.2,0.5,0.3,1,0.7,1.4c0.3,0.3,0.9,0.7,1.4,0.9c0.3,0,0.7,0,1,0c0.5-0.2,1-0.3,1.4-0.7c0.3-0.3,0.7-0.9,0.9-1.4c0-0.3,0-0.7,0-1
	c-0.2-0.5-0.3-1-0.7-1.4c-0.3-0.3-0.9-0.7-1.4-0.9c-0.3,0-0.7,0-1,0c-0.5,0.2-1,0.3-1.4,0.7c-0.3,0.3-0.7,0.9-0.9,1.4
	C108.5,54.7,108.5,55,108.5,55.4z M107.2,62.5c0.3,0.5,0.7,0.9,1.2,1c0.5,0.2,1,0.3,1.5,0.2c0.3,0,0.7-0.2,1-0.3
	c0.5-0.3,0.9-0.7,1-1.2c0.2-0.5,0.3-1,0.2-1.5c0-0.3-0.2-0.7-0.3-1c-0.3-0.5-0.7-0.9-1.2-1c-0.5-0.2-1-0.3-1.5-0.2
	c-0.3,0-0.7,0.2-1,0.3c-0.5,0.3-0.9,0.7-1,1.2c-0.2,0.5-0.3,1-0.2,1.5C106.8,61.9,107,62.2,107.2,62.5z M108.7,69.7
	c0.3,0.3,0.9,0.5,1.5,0.5c0.5,0,1-0.2,1.5-0.3c0.3-0.2,0.5-0.3,0.9-0.7c0.3-0.3,0.5-0.9,0.5-1.5c0-0.5-0.2-1-0.3-1.5
	c-0.2-0.3-0.3-0.5-0.7-0.9c-0.3-0.3-0.9-0.5-1.5-0.5c-0.5,0-1,0.2-1.5,0.3c-0.3,0.2-0.5,0.3-0.9,0.7c-0.3,0.3-0.5,0.9-0.5,1.5
	c0,0.5,0.2,1,0.3,1.5C108.2,69.4,108.3,69.6,108.7,69.7z M110.7,75.9c0.5,0.3,1,0.5,1.5,0.5s1-0.2,1.5-0.5c0.3-0.2,0.5-0.5,0.7-0.7
	c0.3-0.5,0.5-1,0.5-1.5c0-0.5-0.2-1-0.5-1.5c-0.2-0.3-0.5-0.5-0.7-0.7c-0.5-0.3-1-0.5-1.5-0.5s-1,0.2-1.5,0.5
	c-0.3,0.2-0.5,0.5-0.7,0.7c-0.3,0.5-0.5,1-0.5,1.5c0,0.5,0.2,1,0.5,1.5C110.2,75.4,110.6,75.7,110.7,75.9z M193.5,86.3
	c0.3-0.2,0.5-0.5,0.7-0.7c0.3-0.5,0.5-1,0.5-1.5c0-0.5-0.2-1-0.5-1.5c-0.2-0.3-0.5-0.5-0.7-0.7c-0.5-0.3-1-0.5-1.5-0.5
	s-1,0.2-1.5,0.5c-0.3,0.2-0.5,0.5-0.7,0.7c-0.3,0.5-0.5,1-0.5,1.5c0,0.5,0.2,1,0.5,1.5c0.2,0.3,0.5,0.5,0.7,0.7
	c0.5,0.3,1,0.5,1.5,0.5S192.9,86.6,193.5,86.3z M193.3,74.2c1.4-4.4,6.8-14.4-1.2-21.4c-2.6-2.4-6.5-3.8-9.7-3.8
	c-2.4,0-5.5,0.9-8.4,1.7c-5.1,1.7-8.5,2.7-14.9,2.7v2.7c6.7,0,10.3-1.2,15.7-2.9c2.6-0.9,5.5-1.5,7.5-1.5c2.4,0,5.8,1.2,7.9,3.1
	c5.1,4.4,3.4,10.3,1,16.4c-0.3,0.7-0.5,1.4-0.7,2.1L193.3,74.2z M194.6,75.7l-7-2.4c0.9,1.7,2.6,5.5,3.1,7.3
	c0.3-0.2,0.9-0.2,1.4-0.2c0.2,0,0.5,0,0.7,0L194.6,75.7z M182.9,87.7c1.2-0.9,3.9-2.1,5.5-2.4c-0.2-0.7-0.3-1.4-0.2-1.9
	c0.2-0.7,0.5-1.2,0.9-1.7c-1.4-1-3.4-3.2-3.9-4.6L182.9,87.7z M165.6,47.2c-0.3-0.2-0.7-0.3-1-0.3c-0.5-0.2-1,0-1.5,0.2
	c-0.5,0.2-0.9,0.5-1.2,1c-0.2,0.3-0.3,0.7-0.3,1c-0.2,0.5,0,1,0.2,1.5c0.2,0.5,0.5,0.9,1,1.2c0.3,0.2,0.7,0.3,1,0.3
	c0.5,0.2,1,0,1.5-0.2c0.5-0.2,0.9-0.5,1.2-1c0.2-0.3,0.3-0.7,0.3-1c0.2-0.5,0-1-0.2-1.5S166.1,47.3,165.6,47.2z M170.9,45.3
	c-0.3,0-0.7,0-1,0c-0.5,0.2-1,0.3-1.4,0.7c-0.3,0.3-0.7,0.9-0.9,1.4c0,0.3-0.2,0.7,0,1c0.2,0.5,0.3,1,0.7,1.4
	c0.3,0.3,0.9,0.7,1.4,0.9c0.3,0,0.7,0,1,0c0.5-0.2,1-0.3,1.4-0.7c0.3-0.3,0.7-0.9,0.9-1.4c0-0.3,0.2-0.7,0-1c-0.2-0.5-0.3-1-0.7-1.4
	C171.7,45.6,171.4,45.3,170.9,45.3z M177.4,42.9c-0.3-0.2-0.7-0.2-1-0.2c-0.5,0-1,0.2-1.5,0.5c-0.5,0.3-0.9,0.7-1,1.2
	c-0.2,0.3-0.2,0.7-0.2,1c0,0.5,0.2,1,0.5,1.5c0.3,0.5,0.7,0.9,1.2,1c0.3,0.2,0.7,0.2,1,0.2c0.5,0,1-0.2,1.5-0.5
	c0.5-0.3,0.9-0.7,1-1.2c0.2-0.3,0.2-0.7,0.2-1c0-0.5-0.2-1-0.5-1.5C178.2,43.6,177.7,43.2,177.4,42.9z M184.6,42.9
	c-0.3-0.2-0.5-0.3-0.9-0.5c-0.5-0.2-1-0.2-1.5,0c-0.5,0.2-1,0.5-1.4,0.9c-0.2,0.3-0.3,0.5-0.5,0.9c-0.2,0.5-0.2,1,0,1.5
	c0.2,0.5,0.5,1,0.9,1.4c0.3,0.2,0.5,0.3,0.9,0.5c0.5,0.2,1,0.2,1.5,0c0.5-0.2,1-0.5,1.4-0.9c0.2-0.3,0.3-0.5,0.5-0.9
	c0.2-0.5,0.2-1,0-1.5C185.2,43.6,184.9,43.2,184.6,42.9z M191.4,44.8c-0.2-0.3-0.5-0.5-0.7-0.7c-0.3-0.3-1-0.5-1.5-0.5
	c-0.5,0-1,0.2-1.5,0.5c-0.3,0.2-0.5,0.5-0.7,0.7c-0.3,0.3-0.5,1-0.5,1.5s0.2,1,0.5,1.5c0.2,0.3,0.5,0.5,0.7,0.7
	c0.3,0.3,1,0.5,1.5,0.5c0.5,0,1-0.2,1.5-0.5c0.3-0.2,0.5-0.5,0.7-0.7c0.3-0.3,0.5-1,0.5-1.5C191.7,45.8,191.6,45.3,191.4,44.8z
	 M197.7,49.2c0-0.3-0.2-0.7-0.3-1c-0.3-0.5-0.7-0.9-1.2-1c-0.5-0.2-1-0.3-1.5-0.2c-0.3,0-0.7,0.2-1,0.3c-0.5,0.3-0.9,0.7-1,1.2
	c-0.2,0.5-0.3,1-0.2,1.5c0,0.3,0.2,0.7,0.3,1c0.3,0.5,0.7,0.9,1.2,1c0.5,0.2,1,0.3,1.5,0.2c0.3,0,0.7-0.2,1-0.3
	c0.5-0.3,0.9-0.7,1-1.2C197.7,50.2,197.7,49.7,197.7,49.2z M201.7,55.4c0-0.3,0-0.7,0-1c-0.2-0.5-0.3-1-0.9-1.4
	c-0.3-0.3-0.9-0.7-1.4-0.7c-0.3,0-0.7,0-1,0c-0.5,0.2-1,0.3-1.4,0.9c-0.3,0.3-0.7,0.9-0.7,1.4c0,0.3,0,0.7,0,1
	c0.2,0.5,0.3,1,0.9,1.4c0.3,0.3,0.9,0.7,1.4,0.7c0.3,0,0.7,0,1,0c0.5-0.2,1-0.3,1.4-0.9C201.5,56.4,201.7,55.9,201.7,55.4z
	 M203,62.5c0.2-0.3,0.3-0.7,0.3-1c0-0.5,0-1-0.2-1.5c-0.2-0.5-0.7-0.9-1-1.2c-0.3-0.2-0.7-0.3-1-0.3c-0.5,0-1,0-1.5,0.2
	c-0.5,0.2-0.9,0.7-1.2,1c-0.2,0.3-0.3,0.7-0.3,1c0,0.5,0,1,0.2,1.5c0.2,0.5,0.7,0.9,1,1.2c0.3,0.2,0.7,0.3,1,0.3
	c0.5,0.2,1,0,1.5-0.2C202.3,63.4,202.9,63.1,203,62.5z M201.7,69.7c0.3-0.2,0.5-0.5,0.7-0.9c0.3-0.5,0.3-1,0.3-1.5
	c0-0.5-0.2-1-0.5-1.5c-0.2-0.3-0.5-0.5-0.9-0.7c-0.5-0.3-1-0.3-1.5-0.3s-1,0.2-1.5,0.5c-0.3,0.2-0.5,0.5-0.7,0.9
	c-0.3,0.5-0.3,1-0.3,1.5c0,0.5,0.2,1,0.5,1.5c0.2,0.3,0.5,0.5,0.9,0.7c0.5,0.3,1,0.3,1.5,0.3S201.3,70.1,201.7,69.7z M199.4,75.9
	c0.3-0.2,0.5-0.5,0.7-0.7c0.3-0.5,0.5-1,0.5-1.5c0-0.5-0.2-1-0.5-1.5c-0.2-0.3-0.5-0.5-0.7-0.7c-0.5-0.3-1-0.5-1.5-0.5
	c-0.5,0-1,0.2-1.5,0.5c-0.3,0.2-0.5,0.5-0.7,0.7c-0.3,0.5-0.5,1-0.5,1.5c0,0.5,0.2,1,0.5,1.5c0.2,0.3,0.5,0.5,0.7,0.7
	c0.5,0.3,1,0.5,1.5,0.5C198.6,76.4,199.1,76.2,199.4,75.9z" fill="#FFFFFF"></path>
</svg>
